<svg id="_x31__px" height="50" viewBox="0 0 24 24" width="50" xmlns="http://www.w3.org/2000/svg">
    <path d="m21 3.5c-.128 0-.256-.049-.354-.146-.195-.195-.195-.512 0-.707l1.5-1.5c.195-.195.512-.195.707 0s.195.512 0 .707l-1.5 1.5c-.097.097-.225.146-.353.146z" />
    <path d="m7.25 17.25c-.128 0-.256-.049-.354-.146-.195-.195-.195-.512 0-.707l9.5-9.5c.195-.195.512-.195.707 0s.195.512 0 .707l-9.5 9.5c-.097.097-.225.146-.353.146z" />
    <path d="m1.5 23c-.128 0-.256-.049-.354-.146-.195-.195-.195-.512 0-.707l1.5-1.5c.195-.195.512-.195.707 0s.195.512 0 .707l-1.5 1.5c-.097.097-.225.146-.353.146z" />
    <path d="m9.586 23.5c-.401 0-.778-.156-1.061-.439l-7.585-7.586c-.284-.283-.44-.66-.44-1.061 0-.4.156-.777.439-1.061l.586-.586c.583-.584 1.536-.585 2.121 0l7.586 7.586c.584.585.584 1.537 0 2.121l-.586.586c-.283.284-.66.44-1.06.44zm-7-10.171c-.128 0-.256.049-.354.146l-.586.586c-.094.094-.146.22-.146.353 0 .134.052.259.146.353l7.586 7.586c.189.19.518.189.707 0l.586-.586c.195-.195.195-.512 0-.707l-7.585-7.586c-.098-.097-.226-.145-.354-.145z" fill="#40368a" />
    <path d="m6.086 24c-.401 0-.778-.156-1.061-.439l-4.585-4.586c-.284-.283-.44-.66-.44-1.061 0-.4.156-.777.439-1.061l1.293-1.293c.195-.195.512-.195.707 0s.195.512 0 .707l-1.293 1.293c-.094.095-.146.221-.146.354 0 .134.052.259.146.353l4.586 4.586c.189.189.518.189.707 0l1.293-1.293c.195-.195.512-.195.707 0s.195.512 0 .707l-1.293 1.293c-.283.284-.66.44-1.06.44z" fill="#40368a" />
    <path d="m21.414 11.671c-.384 0-.768-.146-1.061-.438l-7.586-7.586c-.584-.585-.584-1.537 0-2.121l.586-.586c.567-.567 1.556-.566 2.122 0l7.585 7.586c.283.283.439.66.439 1.061 0 .4-.156.777-.439 1.061l-.586.586c-.291.291-.676.437-1.06.437zm-7-10.171c-.133 0-.259.052-.354.146l-.586.586c-.195.195-.195.512 0 .707l7.585 7.586c.195.194.512.194.707 0l.586-.586c.094-.095.146-.22.146-.354s-.052-.259-.146-.353l-7.586-7.586c-.093-.094-.218-.146-.352-.146z" fill="#40368a" />
    <path d="m21.914 8.586c-.128 0-.256-.049-.354-.146-.195-.195-.195-.512 0-.707l1.293-1.293c.095-.095.147-.221.147-.354 0-.134-.052-.259-.146-.353l-4.586-4.586c-.189-.188-.517-.188-.707 0l-1.293 1.293c-.195.195-.512.195-.707 0s-.195-.512 0-.707l1.293-1.293c.567-.567 1.556-.566 2.122 0l4.585 4.586c.283.282.439.659.439 1.06 0 .4-.156.777-.439 1.061l-1.293 1.293c-.098.097-.226.146-.354.146z" fill="#40368a" />
</svg>